<?xml version="1.0" encoding="UTF-8"?>
<!DOCTYPE svg PUBLIC "-//W3C//DTD SVG 1.1//EN" "http://www.w3.org/Graphics/SVG/1.1/DTD/svg11.dtd">
<!-- Creator: CorelDRAW 2018 (64 Bit Versión de evaluación) -->
<svg xmlns="http://www.w3.org/2000/svg" xml:space="preserve" width="76px" height="48px" version="1.1" style="shape-rendering:geometricPrecision; text-rendering:geometricPrecision; image-rendering:optimizeQuality; fill-rule:evenodd; clip-rule:evenodd"
viewBox="0 0 7.86 4.95"
 xmlns:xlink="http://www.w3.org/1999/xlink">
 <defs>
  <style type="text/css">
   <![CDATA[
    .fil0 {fill:#E85414}
   ]]>
  </style>
 </defs>
 <g id="Iconos">
  <metadata id="CorelCorpID_0Corel-Layer"/>
  <g id="_2321860015504">
   <path class="fil0" d="M2.47 0c0.73,0 1.39,0.32 1.85,0.82l-0.64 0.56c-0.3,-0.32 -0.73,-0.53 -1.21,-0.53 -0.89,0 -1.62,0.73 -1.62,1.62 0,0.9 0.73,1.63 1.62,1.63 0.72,0 1.33,-0.47 1.54,-1.11l-1.47 0 0 -0.92 2.41 0 0 0.3c-0.01,0.09 -0.02,0.17 -0.03,0.24l0.02 0.01c-0.07,1.3 -1.15,2.33 -2.47,2.33 -1.36,0 -2.47,-1.11 -2.47,-2.48 0,-1.36 1.11,-2.47 2.47,-2.47z"/>
   <polygon class="fil0" points="6.29,1.24 7.01,1.24 7.01,2.09 7.86,2.09 7.86,2.81 7.01,2.81 7.01,3.66 6.29,3.66 6.29,2.81 5.44,2.81 5.44,2.09 6.29,2.09 "/>
  </g>
 </g>
</svg>
